<svg xmlns="http://www.w3.org/2000/svg" width="640" height="800" viewBox="0 0 640 800"><rect width="640" height="800" fill="#0000FF"/><g fill="#FFFFFF" font-family="sans-serif"><text x="48" y="52" font-size="12" font-weight="500" letter-spacing="3">TINCTA</text><text x="592" y="52" font-family="monospace" font-size="12" text-anchor="end">No. 0128</text><text x="48" y="112" font-size="30" font-weight="500">Cobalt &amp; Deep Azure</text><text x="48" y="148" font-family="monospace" font-size="18">Blue Voltage</text><g fill="none" stroke="#FFFFFF" stroke-width="1" opacity="0.6"><path d="M377 283 C259 283 210 324 212 350 M212 350 C216 390 327 417 391 417 M391 417 C315 403 281 396 277 350 M277 350 C273 310 326 304 377 283"/><path d="M381 280 C256 280 204 322 206 350 M206 350 C210 392 327 420 395 420 M395 420 C314 406 279 399 275 350 M275 350 C271 308 327 301 381 280"/><path d="M384 277 C254 277 199 321 201 350 M201 350 C205 393 327 423 398 423 M398 423 C314 408 277 401 273 350 M273 350 C269 307 327 299 384 277"/><path d="M387 273 C251 273 194 320 196 350 M196 350 C200 396 327 427 401 427 M401 427 C313 411 275 403 271 350 M271 350 C267 304 328 297 387 273"/><path d="M391 270 C248 270 188 318 190 350 M190 350 C194 398 327 430 405 430 M405 430 C312 414 272 406 268 350 M268 350 C264 302 329 294 391 270"/><path d="M394 266 C246 266 183 317 185 350 M185 350 C189 400 327 434 408 434 M408 434 C312 417 270 408 266 350 M266 350 C262 300 329 292 394 266"/><path d="M397 263 C243 263 177 316 179 350 M179 350 C183 402 327 437 411 437 M411 437 C311 419 268 410 264 350 M264 350 C260 298 330 290 397 263"/><path d="M400 260 C240 260 172 314 174 350 M174 350 C178 404 327 440 414 440 M414 440 C311 422 266 413 262 350 M262 350 C258 296 330 287 400 260"/><path d="M404 256 C237 256 166 313 168 350 M168 350 C172 406 327 444 418 444 M418 444 C310 425 264 415 260 350 M260 350 C256 294 331 285 404 256"/><path d="M407 253 C235 253 161 312 163 350 M163 350 C167 408 327 447 421 447 M421 447 C310 427 262 417 258 350 M258 350 C254 292 331 283 407 253"/><path d="M410 250 C232 250 156 310 158 350 M158 350 C162 410 327 450 424 450 M424 450 C309 430 260 420 256 350 M256 350 C252 290 332 280 410 250"/><path d="M413 246 C229 246 150 309 152 350 M152 350 C156 412 327 454 427 454 M427 454 C309 433 257 422 253 350 M253 350 C249 288 332 278 413 246"/><path d="M416 243 C227 243 145 308 147 350 M147 350 C151 414 327 457 430 457 M430 457 C308 435 255 424 251 350 M251 350 C247 286 333 276 416 243"/><path d="M420 240 C224 240 139 306 141 350 M141 350 C145 416 327 460 434 460 M434 460 C308 438 253 427 249 350 M249 350 C245 284 333 273 420 240"/><path d="M423 236 C221 236 134 305 136 350 M136 350 C140 418 327 464 437 464 M437 464 C307 441 251 429 247 350 M247 350 C243 282 334 271 423 236"/><path d="M427 233 C218 233 128 304 130 350 M130 350 C134 420 327 467 441 467 M441 467 C306 443 248 431 244 350 M244 350 C240 280 335 269 427 233"/></g><path d="M58 202 L70 202 M64 196 L64 208 M570 202 L582 202 M576 196 L576 208 M58 502 L70 502 M64 496 L64 508 M570 502 L582 502 M576 496 L576 508 M48 548 L592 548 M48 742 L592 742" fill="none" stroke="#FFFFFF" stroke-width="1" opacity="0.4"/><g font-family="monospace"><text x="48" y="585" font-size="11" letter-spacing="2">A</text><text x="48" y="628" font-size="38">3</text><text x="192" y="585" font-size="11" letter-spacing="2">B</text><text x="192" y="628" font-size="38">13</text><text x="336" y="585" font-size="11" letter-spacing="2">C</text><text x="336" y="628" font-size="38">12</text><text x="480" y="585" font-size="11" letter-spacing="2">D</text><text x="480" y="628" font-size="38">3</text><text x="48" y="680" font-size="11" letter-spacing="2">SCORE</text><text x="48" y="712" font-size="24">997</text></g><text x="592" y="680" font-size="11" letter-spacing="1" text-anchor="end">WINNING EDITION</text><text x="592" y="712" font-size="18" text-anchor="end">Award #4</text><text x="48" y="770" font-size="10" letter-spacing="2">COLOR, COLLECTED.</text><text x="592" y="770" font-family="monospace" font-size="10" text-anchor="end">#0000FF</text></g></svg>