<svg xmlns="http://www.w3.org/2000/svg" width="640" height="800" viewBox="0 0 640 800"><rect width="640" height="800" fill="#CC6699"/><g fill="#000000" font-family="sans-serif"><text x="48" y="52" font-size="12" font-weight="500" letter-spacing="3">TINCTA</text><text x="592" y="52" font-family="monospace" font-size="12" text-anchor="end">No. 0042</text><text x="48" y="112" font-size="30" font-weight="500">Vivid Fuchsia &amp; Magenta</text><text x="48" y="148" font-family="monospace" font-size="18">Roseberry Silk</text><g fill="none" stroke="#000000" stroke-width="1" opacity="0.6"><path d="M197 293 C344 293 344 407 443 407 M443 407 C296 407 296 293 197 293 M443 293 C296 293 296 407 197 407 M197 407 C344 407 344 293 443 293"/><path d="M191 290 C345 290 345 410 449 410 M449 410 C295 410 295 290 191 290 M449 290 C295 290 295 410 191 410 M191 410 C345 410 345 290 449 290"/><path d="M185 287 C347 287 347 413 455 413 M455 413 C293 413 293 287 185 287 M455 287 C293 287 293 413 185 413 M185 413 C347 413 347 287 455 287"/><path d="M178 285 C348 285 348 415 462 415 M462 415 C292 415 292 285 178 285 M462 285 C292 285 292 415 178 415 M178 415 C348 415 348 285 462 285"/><path d="M172 282 C349 282 349 418 468 418 M468 418 C291 418 291 282 172 282 M468 282 C291 282 291 418 172 418 M172 418 C349 418 349 282 468 282"/><path d="M166 278 C350 278 350 422 474 422 M474 422 C290 422 290 278 166 278 M474 278 C290 278 290 422 166 422 M166 422 C350 422 350 278 474 278"/><path d="M160 276 C352 276 352 424 480 424 M480 424 C288 424 288 276 160 276 M480 276 C288 276 288 424 160 424 M160 424 C352 424 352 276 480 276"/><path d="M154 273 C353 273 353 427 486 427 M486 427 C287 427 287 273 154 273 M486 273 C287 273 287 427 154 427 M154 427 C353 427 353 273 486 273"/><path d="M147 270 C354 270 354 430 493 430 M493 430 C286 430 286 270 147 270 M493 270 C286 270 286 430 147 430 M147 430 C354 430 354 270 493 270"/><path d="M141 267 C355 267 355 433 499 433 M499 433 C285 433 285 267 141 267 M499 267 C285 267 285 433 141 433 M141 433 C355 433 355 267 499 267"/><path d="M135 264 C357 264 357 436 505 436 M505 436 C283 436 283 264 135 264 M505 264 C283 264 283 436 135 436 M135 436 C357 436 357 264 505 264"/><path d="M129 262 C358 262 358 438 511 438 M511 438 C282 438 282 262 129 262 M511 262 C282 262 282 438 129 438 M129 438 C358 438 358 262 511 262"/><path d="M123 258 C359 258 359 442 517 442 M517 442 C281 442 281 258 123 258 M517 258 C281 258 281 442 123 442 M123 442 C359 442 359 258 517 258"/><path d="M117 256 C360 256 360 444 523 444 M523 444 C280 444 280 256 117 256 M523 256 C280 256 280 444 117 444 M117 444 C360 444 360 256 523 256"/><path d="M110 253 C362 253 362 447 530 447 M530 447 C278 447 278 253 110 253 M530 253 C278 253 278 447 110 447 M110 447 C362 447 362 253 530 253"/><path d="M104 250 C363 250 363 450 536 450 M536 450 C277 450 277 250 104 250 M536 250 C277 250 277 450 104 450 M104 450 C363 450 363 250 536 250"/></g><path d="M58 202 L70 202 M64 196 L64 208 M570 202 L582 202 M576 196 L576 208 M58 502 L70 502 M64 496 L64 508 M570 502 L582 502 M576 496 L576 508 M48 548 L592 548 M48 742 L592 742" fill="none" stroke="#000000" stroke-width="1" opacity="0.4"/><g font-family="monospace"><text x="48" y="585" font-size="11" letter-spacing="2">A</text><text x="48" y="628" font-size="38">3</text><text x="192" y="585" font-size="11" letter-spacing="2">B</text><text x="192" y="628" font-size="38">4</text><text x="336" y="585" font-size="11" letter-spacing="2">C</text><text x="336" y="628" font-size="38">7</text><text x="480" y="585" font-size="11" letter-spacing="2">D</text><text x="480" y="628" font-size="38">14</text><text x="48" y="680" font-size="11" letter-spacing="2">SCORE</text><text x="48" y="712" font-size="24">512</text></g><text x="592" y="680" font-size="11" letter-spacing="1" text-anchor="end">REVEALED</text><text x="592" y="712" font-size="18" text-anchor="end">Verified on-chain</text><text x="48" y="770" font-size="10" letter-spacing="2">COLOR, COLLECTED.</text><text x="592" y="770" font-family="monospace" font-size="10" text-anchor="end">#CC6699</text></g></svg>