<svg xmlns="http://www.w3.org/2000/svg" width="640" height="800" viewBox="0 0 640 800"><rect width="640" height="800" fill="#66FF99"/><g fill="#000000" font-family="sans-serif"><text x="48" y="52" font-size="12" font-weight="500" letter-spacing="3">TINCTA</text><text x="592" y="52" font-family="monospace" font-size="12" text-anchor="end">No. 0042</text><text x="48" y="112" font-size="30" font-weight="500">Spearmint &amp; Crisp Jade</text><text x="48" y="148" font-family="monospace" font-size="18">Mint Sorbet</text><g fill="none" stroke="#000000" stroke-width="1" opacity="0.6"><path d="M320 350 C262 271 204 271 205 350 M205 350 C206 429 264 429 320 350 M320 350 C376 271 434 271 435 350 M435 350 C436 429 378 429 320 350"/><path d="M320 350 C259 267 198 267 199 350 M199 350 C200 433 261 433 320 350 M320 350 C379 267 440 267 441 350 M441 350 C442 433 381 433 320 350"/><path d="M320 350 C256 263 192 263 193 350 M193 350 C194 437 258 437 320 350 M320 350 C382 263 446 263 447 350 M447 350 C448 437 384 437 320 350"/><path d="M320 350 C253 259 186 259 187 350 M187 350 C188 441 255 441 320 350 M320 350 C385 259 452 259 453 350 M453 350 C454 441 387 441 320 350"/><path d="M320 350 C250 255 181 255 182 350 M182 350 C183 445 252 445 320 350 M320 350 C388 255 457 255 458 350 M458 350 C459 445 390 445 320 350"/><path d="M320 350 C247 251 175 251 176 350 M176 350 C177 449 249 449 320 350 M320 350 C391 251 463 251 464 350 M464 350 C465 449 393 449 320 350"/><path d="M320 350 C244 247 169 247 170 350 M170 350 C171 453 246 453 320 350 M320 350 C394 247 469 247 470 350 M470 350 C471 453 396 453 320 350"/><path d="M320 350 C241 243 163 243 164 350 M164 350 C165 457 243 457 320 350 M320 350 C397 243 475 243 476 350 M476 350 C477 457 399 457 320 350"/><path d="M320 350 C238 239 157 239 158 350 M158 350 C159 461 240 461 320 350 M320 350 C400 239 481 239 482 350 M482 350 C483 461 402 461 320 350"/><path d="M320 350 C236 235 152 235 153 350 M153 350 C154 465 238 465 320 350 M320 350 C402 235 486 235 487 350 M487 350 C488 465 404 465 320 350"/><path d="M320 350 C233 231 146 231 147 350 M147 350 C148 469 235 469 320 350 M320 350 C405 231 492 231 493 350 M493 350 C494 469 407 469 320 350"/><path d="M320 350 C230 227 140 227 141 350 M141 350 C142 473 232 473 320 350 M320 350 C408 227 498 227 499 350 M499 350 C500 473 410 473 320 350"/><path d="M320 350 C227 223 134 223 135 350 M135 350 C136 477 229 477 320 350 M320 350 C411 223 504 223 505 350 M505 350 C506 477 413 477 320 350"/><path d="M320 350 C224 219 128 219 129 350 M129 350 C130 481 226 481 320 350 M320 350 C414 219 510 219 511 350 M511 350 C512 481 416 481 320 350"/><path d="M320 350 C221 215 123 215 124 350 M124 350 C125 485 223 485 320 350 M320 350 C417 215 515 215 516 350 M516 350 C517 485 419 485 320 350"/><path d="M320 350 C218 211 117 211 118 350 M118 350 C119 489 220 489 320 350 M320 350 C420 211 521 211 522 350 M522 350 C523 489 422 489 320 350"/></g><path d="M58 202 L70 202 M64 196 L64 208 M570 202 L582 202 M576 196 L576 208 M58 502 L70 502 M64 496 L64 508 M570 502 L582 502 M576 496 L576 508 M48 548 L592 548 M48 742 L592 742" fill="none" stroke="#000000" stroke-width="1" opacity="0.4"/><g font-family="monospace"><text x="48" y="585" font-size="11" letter-spacing="2">A</text><text x="48" y="628" font-size="38">3</text><text x="192" y="585" font-size="11" letter-spacing="2">B</text><text x="192" y="628" font-size="38">4</text><text x="336" y="585" font-size="11" letter-spacing="2">C</text><text x="336" y="628" font-size="38">7</text><text x="480" y="585" font-size="11" letter-spacing="2">D</text><text x="480" y="628" font-size="38">14</text><text x="48" y="680" font-size="11" letter-spacing="2">SCORE</text><text x="48" y="712" font-size="24">512</text></g><text x="592" y="680" font-size="11" letter-spacing="1" text-anchor="end">REVEALED</text><text x="592" y="712" font-size="18" text-anchor="end">Verified on-chain</text><text x="48" y="770" font-size="10" letter-spacing="2">COLOR, COLLECTED.</text><text x="592" y="770" font-family="monospace" font-size="10" text-anchor="end">#66FF99</text></g></svg>