<svg xmlns="http://www.w3.org/2000/svg" width="640" height="800" viewBox="0 0 640 800"><rect width="640" height="800" fill="#336666"/><g fill="#FFFFFF" font-family="sans-serif"><text x="48" y="52" font-size="12" font-weight="500" letter-spacing="3">TINCTA</text><text x="592" y="52" font-family="monospace" font-size="12" text-anchor="end">No. 0042</text><text x="48" y="112" font-size="30" font-weight="500">Abyssal Waters &amp; Dark Teal</text><text x="48" y="148" font-family="monospace" font-size="18">Harbor Slate</text><g fill="none" stroke="#FFFFFF" stroke-width="1" opacity="0.6"><path d="M320 350 C348 332 376 350 376 368 M376 368 C375 404 263 404 265 314 M265 314 C266 278 434 278 432 350 M432 350 C430 422 206 422 210 278"/><path d="M320 350 C349 332 378 350 378 368 M378 368 C377 406 261 406 263 313 M263 313 C264 275 439 275 437 350 M437 350 C435 425 201 425 205 275"/><path d="M320 350 C350 331 381 350 381 369 M381 369 C380 409 258 409 260 311 M260 311 C261 271 445 271 443 350 M443 350 C441 429 195 429 199 271"/><path d="M320 350 C352 330 384 350 384 370 M384 370 C383 411 255 411 257 309 M257 309 C258 268 451 268 449 350 M449 350 C447 432 189 432 193 268"/><path d="M320 350 C353 329 387 350 387 371 M387 371 C386 414 252 414 254 307 M254 307 C255 264 456 264 454 350 M454 350 C452 436 184 436 188 264"/><path d="M320 350 C355 328 390 350 390 372 M390 372 C389 417 249 417 251 305 M251 305 C252 260 462 260 460 350 M460 350 C458 440 178 440 182 260"/><path d="M320 350 C356 327 392 350 392 373 M392 373 C391 419 247 419 249 304 M249 304 C250 257 467 257 465 350 M465 350 C463 443 173 443 177 257"/><path d="M320 350 C357 326 395 350 395 374 M395 374 C394 422 244 422 246 302 M246 302 C247 253 473 253 471 350 M471 350 C469 447 167 447 171 253"/><path d="M320 350 C359 325 398 350 398 375 M398 375 C397 425 241 425 243 300 M243 300 C244 250 479 250 477 350 M477 350 C475 450 161 450 165 250"/><path d="M320 350 C360 324 401 350 401 376 M401 376 C400 428 238 428 240 298 M240 298 C241 246 484 246 482 350 M482 350 C480 454 156 454 160 246"/><path d="M320 350 C362 323 404 350 404 377 M404 377 C403 431 235 431 237 296 M237 296 C238 242 490 242 488 350 M488 350 C486 458 150 458 154 242"/><path d="M320 350 C363 323 406 350 406 377 M406 377 C405 433 233 433 235 295 M235 295 C236 239 495 239 493 350 M493 350 C491 461 145 461 149 239"/><path d="M320 350 C364 322 409 350 409 378 M409 378 C408 436 230 436 232 293 M232 293 C233 235 501 235 499 350 M499 350 C497 465 139 465 143 235"/><path d="M320 350 C366 321 412 350 412 379 M412 379 C411 438 227 438 229 291 M229 291 C230 232 507 232 505 350 M505 350 C503 468 133 468 137 232"/><path d="M320 350 C367 320 415 350 415 380 M415 380 C414 441 224 441 226 289 M226 289 C227 228 512 228 510 350 M510 350 C508 472 128 472 132 228"/><path d="M320 350 C369 319 418 350 418 381 M418 381 C417 444 221 444 223 287 M223 287 C224 224 518 224 516 350 M516 350 C514 476 122 476 126 224"/></g><path d="M58 202 L70 202 M64 196 L64 208 M570 202 L582 202 M576 196 L576 208 M58 502 L70 502 M64 496 L64 508 M570 502 L582 502 M576 496 L576 508 M48 548 L592 548 M48 742 L592 742" fill="none" stroke="#FFFFFF" stroke-width="1" opacity="0.4"/><g font-family="monospace"><text x="48" y="585" font-size="11" letter-spacing="2">A</text><text x="48" y="628" font-size="38">3</text><text x="192" y="585" font-size="11" letter-spacing="2">B</text><text x="192" y="628" font-size="38">4</text><text x="336" y="585" font-size="11" letter-spacing="2">C</text><text x="336" y="628" font-size="38">7</text><text x="480" y="585" font-size="11" letter-spacing="2">D</text><text x="480" y="628" font-size="38">14</text><text x="48" y="680" font-size="11" letter-spacing="2">SCORE</text><text x="48" y="712" font-size="24">512</text></g><text x="592" y="680" font-size="11" letter-spacing="1" text-anchor="end">REVEALED</text><text x="592" y="712" font-size="18" text-anchor="end">Verified on-chain</text><text x="48" y="770" font-size="10" letter-spacing="2">COLOR, COLLECTED.</text><text x="592" y="770" font-family="monospace" font-size="10" text-anchor="end">#336666</text></g></svg>